<svg width="512" height="512" viewBox="0 0 512 512" fill="none" xmlns="http://www.w3.org/2000/svg" xmlns:xlink="http://www.w3.org/1999/xlink" class=""><rect id="_r_9_" width="512" height="512" x="0" y="0" rx="128" fill="url(#_r_a_)" stroke="#FFFFFF" stroke-width="0" stroke-opacity="100%" paint-order="stroke"></rect><clipPath id="clip"><use xlink:href="#_r_9_"></use></clipPath><defs><radialGradient id="_r_a_" cx="50%" cy="50%" r="100%" fx="50%" fy="0%" gradientUnits="objectBoundingBox"><stop stop-color="#4d4d4d"></stop><stop offset="1" stop-color="#000000"></stop></radialGradient><radialGradient id="_r_b_" cx="0" cy="0" r="1" gradientUnits="userSpaceOnUse" gradientTransform="translate(256) rotate(90) scale(512)"><stop stop-color="white"></stop><stop offset="1" stop-color="white" stop-opacity="0"></stop></radialGradient></defs><svg xmlns="http://www.w3.org/2000/svg" fill="none" viewBox="0 0 16 16" width="350" height="350" x="81" y="81" alignment-baseline="middle" style="color: rgb(230, 230, 230); width: 350px; height: 350px;"><path stroke="currentColor" stroke-linecap="round" stroke-linejoin="round" stroke-width="1.5" d="M4.5 8S6 7 8 7s3.5 1 3.5 1M4.25 5.771v4.458c0 .564-.352 1.021-.786 1.021h-.928c-.434 0-.786-.457-.786-1.021V5.77c0-.564.352-1.021.786-1.021h.928c.434 0 .786.457.786 1.021Zm10 0v4.458c0 .564-.352 1.021-.786 1.021h-.928c-.434 0-.786-.457-.786-1.021V5.77c0-.564.352-1.021.786-1.021h.928c.434 0 .786.457.786 1.021Z"></path></svg></svg>